PathFileType	4	(X/Y/Z)	c:/Users/goper/Files/vsCode/490R/osim_files/C10/C10_SSWS_02.trc
DataRate	CameraRate	NumFrames	NumMarkers	Units                	OrigDataRate	OrigDataStartFrame	OrigNumFrames
250.00	250.00	7	36	mm	250.0	1651	2641
                Frame#	Time	LPSIS			LASIS			LTH1			LTH2			LTH3			LTH4			LLFE			LMFE			LSH1			LSH2			LSH3			LSH4			LLMAL			LMMAL			LCAL			LMTP5			LTOE			LMTP1			RPSIS			RASIS			RTH1			RTH2			RTH3			RTH4			RLFE			RMFE			RSH1			RSH2			RSH3			RSH4			RLMAL			RMMAL			RCAL			RMTP1			RTOE			RMTP5		
		X1	Y1	Z1	X2	Y2	Z2	X3	Y3	Z3	X4	Y4	Z4	X5	Y5	Z5	X6	Y6	Z6	X7	Y7	Z7	X8	Y8	Z8	X9	Y9	Z9	X10	Y10	Z10	X11	Y11	Z11	X12	Y12	Z12	X13	Y13	Z13	X14	Y14	Z14	X15	Y15	Z15	X16	Y16	Z16	X17	Y17	Z17	X18	Y18	Z18	X19	Y19	Z19	X20	Y20	Z20	X21	Y21	Z21	X22	Y22	Z22	X23	Y23	Z23	X24	Y24	Z24	X25	Y25	Z25	X26	Y26	Z26	X27	Y27	Z27	X28	Y28	Z28	X29	Y29	Z29	X30	Y30	Z30	X31	Y31	Z31	X32	Y32	Z32	X33	Y33	Z33	X34	Y34	Z34	X35	Y35	Z35	X36	Y36	Z36

1651	6.60000	-1434.36768	990.97845	295.68851	-1603.35657	972.61554	414.26816	-1529.14417	734.24005	452.53741	-1537.98779	687.63855	446.77176	-1588.44604	741.61206	440.58511	-1586.87000	693.81720	432.85294	0.00000	0.00000	0.00000	-1551.14197	428.93387	276.30786	-1445.19604	417.51419	401.11893	-1409.41333	386.83414	404.13654	-1480.15503	367.44025	389.81348	-1439.42212	346.05304	392.50073	-1202.42163	214.18057	362.21854	0.00000	0.00000	0.00000	-1133.64258	263.32263	334.59674	-1183.10034	87.33874	353.40533	-1213.17102	62.35020	282.82281	-1172.40332	92.97647	244.87985	-1437.16492	995.65369	212.31506	-1593.08948	995.35779	82.95123	-1583.65918	720.37494	42.44829	-1604.41138	681.04053	48.14286	-1638.14514	742.31580	44.79086	-1652.36475	699.67590	52.49738	-1696.93909	482.00894	126.43472	-1700.83020	486.36472	237.48247	-1636.49854	382.79651	119.56090	-1646.29187	339.53714	120.05158	-1699.34460	388.12177	125.38583	-1698.64490	345.12665	123.77951	-1687.16357	82.66477	178.96419	-1701.73425	96.27470	259.20486	-1633.19543	41.04622	220.04832	-1827.58691	35.07791	258.13647	-1855.33228	50.46254	219.11130	-1808.79932	30.45200	154.88750
1652	6.60400	-1439.13770	991.42059	295.34439	-1607.90039	973.45880	414.02917	-1536.22449	734.29962	452.00803	-1545.68127	687.82135	446.51199	-1595.36523	742.43726	440.00690	-1594.43958	694.53333	432.53043	0.00000	0.00000	0.00000	-1563.48596	430.15430	276.28860	-1458.22046	418.26572	400.18390	-1421.85608	387.43997	404.11478	-1492.31677	367.82687	389.51382	-1451.51843	346.82584	392.45941	-1213.11462	217.29851	362.78601	0.00000	0.00000	0.00000	-1143.35876	266.26569	334.87247	-1194.00842	90.69374	354.33173	-1223.71802	65.46094	283.60910	-1182.35889	95.55303	245.81912	-1442.13086	996.41211	212.11949	-1598.03064	996.23047	82.44425	-1586.34998	721.35077	42.36626	-1606.85767	681.81592	47.74382	-1641.06104	742.87152	44.50016	-1655.02332	700.05804	52.00091	-1698.75488	482.24054	126.42293	-1702.13489	486.15250	237.44771	-1636.94006	383.19708	119.98426	-1646.50928	339.87247	120.30840	-1699.91626	388.16293	125.08304	-1698.94958	345.14105	123.47060	-1687.10559	82.65012	178.93091	-1701.70715	96.31019	259.16449	-1633.12524	41.03183	220.03189	-1827.51038	35.07321	258.16183	-1855.24768	50.47670	219.08919	-1808.76160	30.45855	154.86809
1653	6.60800	-1443.87622	991.88281	294.88828	-1612.24121	974.32477	413.92874	-1543.31396	734.57526	451.52594	-1553.30920	688.18506	446.29718	-1602.35034	743.31738	439.30698	-1601.92859	695.46924	432.19138	0.00000	0.00000	0.00000	-1574.90234	431.11652	275.70059	-1470.45398	418.75568	401.01062	-1434.34106	388.38019	404.19998	-1504.54370	368.40195	389.16422	-1463.58142	347.56409	392.29257	-1223.88342	220.25783	363.36469	0.00000	0.00000	0.00000	-1152.87415	268.54797	335.08664	-1205.58984	93.88528	355.28714	-1235.25452	68.50735	284.61710	-1193.30615	97.67892	246.83488	-1447.11707	997.20923	211.82854	-1602.94702	997.07959	81.99382	-1589.14575	722.45087	42.20346	-1609.39783	682.75818	47.38030	-1644.05383	743.51691	44.28740	-1657.89661	700.80151	51.27870	-1700.44238	482.42853	126.31466	-1703.11462	485.78708	237.27885	-1637.47839	383.57996	120.19619	-1646.79480	340.19150	120.39601	-1700.53833	388.16681	124.70962	-1699.28003	345.18185	123.09938	-1687.08386	82.64677	178.88512	-1701.71704	96.34147	259.09686	-1633.09766	41.00019	219.99130	-1827.45190	35.05481	258.16666	-1855.21472	50.58258	219.00407	-1808.74109	30.44215	154.81743
1654	6.61200	-1448.61694	992.37390	294.35632	-1616.56128	975.16571	413.94135	-1550.39612	734.95343	451.05106	-1561.00781	688.65955	446.10419	-1609.36072	744.34766	438.68460	-1609.57520	696.55774	431.85144	0.00000	0.00000	0.00000	-1586.34021	432.21710	275.26764	-1483.92078	419.66550	400.35327	-1446.76709	389.39261	404.24994	-1516.79614	368.97354	388.88901	-1475.72144	348.46848	392.20425	-1234.79077	223.05067	363.95044	0.00000	0.00000	0.00000	-1163.74182	269.62946	335.54187	-1217.54956	96.54336	356.31091	-1247.70337	71.16458	285.92758	-1205.90991	98.88265	247.72496	-1451.93518	998.09741	211.40334	-1608.15991	997.99640	81.69828	-1592.00208	723.58435	41.98829	-1612.13135	683.75098	46.98513	-1647.03296	744.29144	44.16412	-1661.86914	702.44720	49.67033	-1702.01575	482.56876	126.14411	-1704.57507	485.53271	237.10962	-1638.12903	383.93478	120.17414	-1647.19116	340.52106	120.24931	-1701.20691	388.14734	124.39706	-1699.70825	345.19479	122.71500	-1687.02612	82.62728	178.78554	-1701.73633	96.38429	258.99524	-1633.05359	40.97538	219.93050	-1827.44458	35.07537	258.14963	-1855.13635	50.65992	218.93645	-1808.70593	30.42772	154.77338
1655	6.61600	-1453.17883	992.99286	293.60718	-1620.86633	976.00751	413.93356	-1557.44592	735.58868	450.61990	-1568.63086	689.32117	445.92023	-1616.37109	745.53729	438.06644	-1617.06494	697.62451	431.49738	0.00000	0.00000	0.00000	-1597.66882	433.43848	274.79675	-1495.57715	420.38348	400.83212	-1459.22241	390.40878	404.10254	-1528.98352	369.81165	388.70267	-1487.87097	349.39941	391.96298	-1245.92627	225.61432	364.41565	0.00000	0.00000	0.00000	-1174.22937	270.96219	335.14407	-1229.30713	99.04105	357.02274	-1261.06250	73.49096	287.37250	-1219.63135	100.44514	248.35614	-1456.70142	999.05981	210.88148	-1613.23926	998.85083	81.48563	-1594.92859	724.80554	41.70852	-1615.01050	684.86566	46.62243	-1650.28503	745.25067	44.03584	-1664.11096	702.81769	50.17677	-1703.52075	482.64178	125.85055	-1705.78577	485.24493	236.80518	-1638.58569	384.34149	119.75421	-1647.68762	340.83450	119.87423	-1701.98828	388.19519	123.92055	-1700.22339	345.21100	122.34596	-1687.00281	82.60736	178.67766	-1701.73132	96.45549	258.85617	-1632.99719	40.98232	219.88109	-1827.35303	35.11131	258.10196	-1855.05701	50.75555	218.79346	-1808.66248	30.39661	154.71889
1656	6.62000	-1457.68945	993.64252	292.80286	-1624.86841	976.83661	414.12360	-1564.60913	736.25226	450.26208	-1576.28833	690.11353	445.71304	-1623.34131	746.75983	437.46542	-1624.44641	698.85944	431.12192	0.00000	0.00000	0.00000	-1609.08130	434.84647	274.50827	-1508.07776	421.38361	400.76465	-1471.69324	391.45145	403.84793	-1541.16467	370.77716	388.58072	-1499.96777	350.50262	391.87506	-1257.39917	227.68536	364.79688	0.00000	0.00000	0.00000	-1184.18970	272.81000	334.81696	-1242.04504	101.06325	358.03540	-1274.98291	75.51258	288.91284	-1233.04663	102.42651	249.51051	-1461.35107	1000.11310	210.24998	-1618.57581	999.77026	81.39529	-1598.49939	726.24054	41.98045	-1617.55847	686.27722	45.73716	-1656.07434	747.66888	43.96956	-1667.16223	703.73376	49.91901	-1704.92236	482.71310	125.52071	-1707.16907	484.98209	236.42064	-1639.73511	384.52737	119.26135	-1648.38562	341.07886	119.38857	-1702.83655	388.16888	123.53773	-1700.95850	345.21960	121.88914	-1686.95129	82.56953	178.52103	-1701.71838	96.56305	258.67242	-1632.90234	40.99792	219.78690	-1824.37024	34.91629	256.63055	-1854.97290	50.85303	218.62526	-1808.66602	30.36312	154.62711
1657	6.62400	-1462.28601	994.29706	291.97095	-1628.90173	977.65057	414.35138	-1571.69238	737.04364	450.03839	-1583.92786	690.98010	445.56308	-1630.30457	748.06140	436.94507	-1632.09790	700.17749	430.76566	0.00000	0.00000	0.00000	-1620.33679	436.30087	274.26596	-1520.35010	422.44702	400.67969	-1484.11829	392.55032	403.60620	-1554.14758	371.71429	388.72156	-1512.04358	351.66190	391.85052	-1269.00281	229.38469	365.18469	0.00000	0.00000	0.00000	-1195.35779	273.51373	334.25269	-1255.17761	102.70939	359.09048	-1289.16663	76.90696	290.66959	-1247.13293	103.05851	250.68073	-1466.00269	1001.16089	209.57024	-1623.67590	1000.66736	81.40920	-1599.89404	727.48553	42.19968	-1620.73779	687.32599	45.49921	-1659.53223	748.65051	43.99934	-1670.66589	704.67078	49.19810	-1705.92554	482.97711	124.78929	-1708.77271	484.81097	235.93495	-1640.74023	384.72192	118.45369	-1649.21021	341.26730	118.64233	-1703.87805	388.17609	123.05547	-1701.78796	345.17758	121.51455	-1686.92151	82.53601	178.37209	-1701.70105	96.66802	258.47852	-1632.84656	40.96231	219.71214	-1824.30566	35.02741	256.52924	-1854.86658	50.97260	218.47108	-1808.61499	30.33205	154.51094
